<svg width="153" height="52" viewBox="0 0 153 52" fill="none" xmlns="http://www.w3.org/2000/svg">
<path d="M7.84 38.4C5.73333 38.4 4.12 37.8 3 36.6C1.90667 35.4 1.36 33.7067 1.36 31.52V16.48C1.36 14.2933 1.90667 12.6 3 11.4C4.12 10.2 5.73333 9.6 7.84 9.6C9.94667 9.6 11.5467 10.2 12.64 11.4C13.76 12.6 14.32 14.2933 14.32 16.48V19.44H10.16V16.2C10.16 14.4667 9.42667 13.6 7.96 13.6C6.49333 13.6 5.76 14.4667 5.76 16.2V31.84C5.76 33.5467 6.49333 34.4 7.96 34.4C9.42667 34.4 10.16 33.5467 10.16 31.84V27.56H14.32V31.52C14.32 33.7067 13.76 35.4 12.64 36.6C11.5467 37.8 9.94667 38.4 7.84 38.4ZM16.9525 10H21.3525V38H16.9525V10ZM24.6478 10H30.1678L34.4478 26.76H34.5278V10H38.4478V38H33.9278L28.6478 17.56H28.5678V38H24.6478V10ZM41.7181 10H53.7181V14H46.1181V21.4H52.1581V25.4H46.1181V34H53.7181V38H41.7181V10ZM56.2494 10H62.5294L65.3294 30.04H65.4094L68.2094 10H74.4894V38H70.3294V16.8H70.2494L67.0494 38H63.3694L60.1694 16.8H60.0894V38H56.2494V10ZM81.1728 10H87.1328L91.6928 38H87.2928L86.4928 32.44V32.52H81.4928L80.6928 38H76.6128L81.1728 10ZM85.9728 28.72L84.0128 14.88H83.9328L82.0128 28.72H85.9728Z" fill="#FCF8F3"/>
<path d="M103.16 16.4H95.52L96.96 9.6H120L118.56 16.4H110.96L106.36 38H98.56L103.16 16.4ZM120.824 16.96H128.424L123.944 38H116.344L120.824 16.96ZM122.544 8.8H130.144L128.784 15.2H121.184L122.544 8.8ZM134.71 27.48L130.35 16.96H138.03L139.55 22.12L139.75 22.96L140.27 22.12L144.15 16.96H151.75L142.87 27.48L147.47 38H139.75L137.99 32.84L137.83 32.04L137.31 32.84L133.39 38H125.67L134.71 27.48Z" fill="url(#paint0_linear_444_4624)"/>
<defs>
<linearGradient id="paint0_linear_444_4624" x1="137.908" y1="26" x2="162" y2="26" gradientUnits="userSpaceOnUse">
<stop stop-color="#FF0000"/>
<stop offset="1" stop-color="#AF0404"/>
</linearGradient>
</defs>
</svg>
